<svg width="512" height="512" viewBox="0 0 512 512" fill="none"
    xmlns="http://www.w3.org/2000/svg">
    <g id="Free Form Logo">
        <mask id="mask0" mask-type="alpha" maskUnits="userSpaceOnUse" x="0" y="0" width="512" height="512">
            <rect id="Rectangle 1" width="512" height="512" fill="#C4C4C4"/>
        </mask>
        <g mask="url(#mask0)">
            <path id="page" d="M366.995 435.708C367.004 440.101 366.224 444.453 364.699 448.512C363.175 452.571 360.936 456.258 358.113 459.358C355.301 462.47 351.958 464.938 348.277 466.619C344.595 468.3 340.649 469.16 336.664 469.152H69.1912C65.2072 469.162 61.2607 468.302 57.5794 466.622C53.8981 464.943 50.5548 462.476 47.7422 459.365C44.9192 456.263 42.6809 452.576 41.1565 448.515C39.6321 444.455 38.8517 440.102 38.8602 435.708V157.044H85.3425C100.953 157.044 115.925 150.206 126.963 138.035C138.002 125.863 144.203 109.355 144.203 92.1425V42.8415H336.658C340.642 42.8338 344.589 43.6951 348.27 45.3759C351.951 47.0567 355.294 49.5238 358.107 52.635C360.931 55.7361 363.17 59.4233 364.695 63.4838C366.219 67.5443 366.999 71.8976 366.989 76.2923V94.4207L374.41 84.5717C382.073 73.6796 392.59 65.6506 404.533 61.5742C401.887 46.7087 395.289 33.0477 385.578 22.3307C379.159 15.2405 371.533 9.61793 363.138 5.78583C354.743 1.95374 345.744 -0.0124721 336.658 5.95267e-05H94.552L2.90477e-05 104.242V435.715C-0.00830809 445.736 1.7781 455.66 5.25673 464.917C8.73536 474.175 13.8377 482.584 20.2711 489.662C26.6913 496.752 34.3173 502.374 42.712 506.207C51.1068 510.04 60.1051 512.009 69.1912 512H336.658C345.744 512.007 354.742 510.038 363.136 506.205C371.531 502.372 379.157 496.75 385.578 489.662C392.008 482.581 397.107 474.171 400.586 464.914C404.064 455.657 405.853 445.735 405.849 435.715V351.074L366.989 390.157V435.708H366.995Z" fill="#39DAA2"/>
            <g id="pen">
                <path id="pen-body" d="M500.539 156.959L447.159 101.518C431.751 85.5426 409.087 87.3485 397.175 104.643L246.225 304.876C239.479 314.669 242.994 331.409 253.835 342.668L291.435 381.696C302.27 392.948 317.64 395.831 326.094 387.822L500.697 212.15C515.645 198.001 515.941 172.955 500.545 156.966L500.539 156.959Z" fill="#39DAA2"/>
                <path id="pen-tip" d="M228.499 429.163L283.303 409.34L231.63 355.663L216.972 417.203C217.161 424.01 222.326 429.372 228.499 429.17V429.163Z" fill="#39DAA2"/>
            </g>
            <!-- <path id="line" d="M77.7833 398.977C74.6218 398.979 71.5903 400.365 69.3554 402.831C67.1205 405.296 65.8651 408.639 65.8651 412.125V418.877C65.8651 426.142 71.2068 432.039 77.7833 432.039H182.742C185.907 432.039 188.944 430.652 191.182 428.184C193.421 425.715 194.679 422.367 194.679 418.877V412.125C194.679 404.86 189.324 398.977 182.742 398.977H77.7833Z" fill="#39DAA2"/> -->
            <line id="line" x1="85" x2="177" y1="416" y2="416" stroke="#39DAA2" stroke-linecap="round" stroke-width="35"/>
        </g>
    </g>
</svg>
