<svg width="100" height="90" viewBox="0 0 100 90" fill="none"
    xmlns="http://www.w3.org/2000/svg">
    <path d="M71.1317 76.5892C71.1334 77.3615 70.9821 78.1265 70.6866 78.84C70.3912 79.5536 69.9573 80.2015 69.4101 80.7465C68.8651 81.2936 68.2171 81.7274 67.5036 82.0228C66.7901 82.3183 66.0251 82.4696 65.2529 82.468H13.4108C12.6386 82.4698 11.8737 82.3187 11.1601 82.0235C10.4466 81.7282 9.79861 81.2946 9.25347 80.7477C8.70631 80.2025 8.27249 79.5543 7.97703 78.8406C7.68156 78.1269 7.5303 77.3617 7.53195 76.5892V27.6053H16.5412C19.5669 27.6053 22.4687 26.4034 24.6082 24.2639C26.7477 22.1244 27.9496 19.2226 27.9496 16.1969V7.53073H65.2516C66.0239 7.52938 66.7887 7.68078 67.5022 7.97623C68.2157 8.27168 68.8637 8.70535 69.4089 9.25225C69.9563 9.79736 70.3903 10.4455 70.6857 11.1593C70.9812 11.873 71.1324 12.6383 71.1304 13.4108V16.5974L72.5687 14.8661C74.054 12.9515 76.0924 11.5401 78.4072 10.8236C77.8944 8.21052 76.6155 5.80917 74.7334 3.92532C73.4892 2.67899 72.0111 1.69065 70.384 1.01704C68.7568 0.34343 67.0127 -0.00219236 65.2516 1.04637e-05H18.3262L5.63008e-06 18.3238V76.5905C-0.00161029 78.3519 0.344633 80.0964 1.01887 81.7238C1.6931 83.3511 2.68205 84.8293 3.92897 86.0735C5.17334 87.3196 6.65144 88.3079 8.27852 88.9817C9.9056 89.6555 11.6497 90.0016 13.4108 90H65.2516C67.0127 90.0012 68.7566 89.6551 70.3837 88.9813C72.0107 88.3075 73.4888 87.3194 74.7334 86.0735C75.9796 84.8287 76.968 83.3504 77.6422 81.7232C78.3164 80.096 78.6631 78.3518 78.6624 76.5905V61.7122L71.1304 68.5824V76.5892H71.1317Z" fill="#39DAA2"/>
    <path d="M97.0155 27.5907L86.6693 17.8452C83.6829 15.037 79.2899 15.3545 76.9812 18.3946L47.7239 53.5917C46.4163 55.3132 47.0976 58.2557 49.1988 60.2348L56.4865 67.0952C58.5866 69.0732 61.5656 69.5798 63.2041 68.1721L97.046 37.2922C99.9433 34.8052 100.001 30.4025 97.0167 27.5919L97.0155 27.5907ZM44.2882 75.4391L54.9103 71.9546L44.895 62.5192L42.0539 73.3367C42.0905 74.5332 43.0917 75.4757 44.2882 75.4403V75.4391ZM15.0761 70.1329C14.4633 70.1333 13.8758 70.3769 13.4426 70.8103C13.0094 71.2437 12.7661 71.8314 12.7661 72.4442V73.6309C12.7661 74.908 13.8015 75.9446 15.0761 75.9446H35.4193C36.0329 75.9446 36.6214 75.7008 37.0553 75.2669C37.4892 74.833 37.733 74.2445 37.733 73.6309V72.4442C37.733 71.1671 36.6952 70.1329 35.4193 70.1329H15.0761Z" fill="#39DAA2"/>
</svg>
