<svg width="446" height="68" viewBox="0 0 446 68" fill="none"
    xmlns="http://www.w3.org/2000/svg">
    <path d="M40.1849 9.08945H10.7296V29.592H36.3578V38.5447H10.7296V66.9749H0V0H40.1849V9.08945ZM90.3477 27.4734C87.2496 27.4734 84.6298 28.1796 82.4884 29.592C80.3015 30.9588 78.7296 32.5534 77.7729 34.3759V57.8854H92.8764V66.9749H55.2884V57.8854H66.9749V28.2251H55.2884V19.1357H74.9025L76.7477 24.9447C78.4791 22.7122 80.6432 21.0037 83.2402 19.8191C85.8372 18.5889 88.8442 17.9739 92.2613 17.9739C95.3139 17.9739 98.0476 18.5889 100.462 19.8191L97.3186 28.9769C96.9997 28.658 96.2023 28.3162 94.9266 27.9518C93.6965 27.6328 92.1702 27.4734 90.3477 27.4734ZM134.155 17.9739C140.989 17.9739 146.206 20.2291 149.805 24.7397C153.45 29.2503 155.272 35.3782 155.272 43.1236C155.272 44.4905 155.25 45.4928 155.204 46.1307H122.263C122.582 50.7323 123.744 53.99 125.749 55.9035C127.753 57.8626 130.487 58.8422 133.95 58.8422C138.734 58.8422 142.333 56.8603 144.748 52.8965L153.837 57.8854C151.741 61.257 148.917 63.7856 145.363 65.4714C141.763 67.1571 137.936 68 133.881 68C129.644 68 125.817 67.1116 122.4 65.3347C118.983 63.5578 116.272 60.7786 114.267 56.997C112.263 53.261 111.26 48.591 111.26 42.9869C111.26 37.2918 112.285 32.5762 114.336 28.8402C116.386 25.1042 119.12 22.3705 122.537 20.6392C125.999 18.8623 129.872 17.9739 134.155 17.9739ZM122.537 37.8613H144.406C144.087 34.3075 143.085 31.6194 141.399 29.797C139.668 27.9745 137.185 27.0633 133.95 27.0633C130.897 27.0633 128.369 27.9062 126.364 29.592C124.405 31.2322 123.129 33.9886 122.537 37.8613ZM191.562 17.9739C198.396 17.9739 203.613 20.2291 207.212 24.7397C210.857 29.2503 212.679 35.3782 212.679 43.1236C212.679 44.4905 212.657 45.4928 212.611 46.1307H179.67C179.989 50.7323 181.151 53.99 183.156 55.9035C185.16 57.8626 187.894 58.8422 191.357 58.8422C196.141 58.8422 199.74 56.8603 202.155 52.8965L211.244 57.8854C209.148 61.257 206.324 63.7856 202.77 65.4714C199.171 67.1571 195.343 68 191.288 68C187.051 68 183.224 67.1116 179.807 65.3347C176.39 63.5578 173.679 60.7786 171.674 56.997C169.67 53.261 168.667 48.591 168.667 42.9869C168.667 37.2918 169.692 32.5762 171.743 28.8402C173.793 25.1042 176.527 22.3705 179.944 20.6392C183.406 18.8623 187.279 17.9739 191.562 17.9739ZM179.944 37.8613H201.813C201.494 34.3075 200.492 31.6194 198.806 29.797C197.075 27.9745 194.592 27.0633 191.357 27.0633C188.304 27.0633 185.776 27.9062 183.771 29.592C181.812 31.2322 180.536 33.9886 179.944 37.8613ZM269.813 9.08945H240.358V29.592H265.986V38.5447H240.358V66.9749H229.628V0H269.813V9.08945ZM304.052 68C297.628 68 292.275 65.9953 287.992 61.9859C283.709 57.931 281.568 51.598 281.568 42.9869C281.568 37.1551 282.616 32.3712 284.712 28.6352C286.762 24.8992 289.473 22.1883 292.844 20.5025C296.261 18.8168 299.997 17.9739 304.052 17.9739C308.153 17.9739 311.866 18.8168 315.192 20.5025C318.563 22.1883 321.274 24.8992 323.325 28.6352C325.42 32.3712 326.468 37.1551 326.468 42.9869C326.468 48.8188 325.42 53.6027 323.325 57.3387C321.274 61.0747 318.563 63.7856 315.192 65.4714C311.866 67.1571 308.153 68 304.052 68ZM304.052 58.8422C307.059 58.8422 309.656 57.6121 311.843 55.1518C314.076 52.6915 315.192 48.6365 315.192 42.9869C315.192 37.3374 314.076 33.2824 311.843 30.8221C309.656 28.4074 307.059 27.2 304.052 27.2C301 27.2 298.38 28.4074 296.193 30.8221C293.96 33.2369 292.844 37.2918 292.844 42.9869C292.844 48.6365 293.96 52.6915 296.193 55.1518C298.38 57.6121 301 58.8422 304.052 58.8422ZM377.383 27.4734C374.285 27.4734 371.665 28.1796 369.524 29.592C367.337 30.9588 365.765 32.5534 364.808 34.3759V57.8854H379.912V66.9749H342.324V57.8854H354.01V28.2251H342.324V19.1357H361.938L363.783 24.9447C365.514 22.7122 367.678 21.0037 370.275 19.8191C372.872 18.5889 375.879 17.9739 379.296 17.9739C382.349 17.9739 385.083 18.5889 387.497 19.8191L384.354 28.9769C384.035 28.658 383.238 28.3162 381.962 27.9518C380.732 27.6328 379.205 27.4734 377.383 27.4734ZM434.585 18.1106C436.954 18.1106 438.936 18.5662 440.531 19.4774C442.171 20.3886 443.469 22.1655 444.426 24.808C445.383 27.405 445.861 31.1866 445.861 36.1528V66.9749H435.61V39.0231C435.61 35.7883 435.496 33.328 435.268 31.6422C434.995 30.002 434.562 28.863 433.97 28.2251C433.423 27.5873 432.535 27.2683 431.305 27.2683C430.029 27.2683 428.685 27.8151 427.272 28.9085C425.906 30.0476 424.926 31.3233 424.334 32.7357V32.804V66.9749H414.766V39.0231C414.766 35.8338 414.629 33.3963 414.356 31.7106C414.128 30.0248 413.695 28.863 413.057 28.2251C412.419 27.5873 411.531 27.2683 410.392 27.2683C409.162 27.2683 407.841 27.8379 406.428 28.9769C405.016 30.1159 404.036 31.4372 403.489 32.9407V66.9749H393.238V33.9658V19.1357H400.824L402.328 24.603C403.649 22.5528 405.244 20.9581 407.112 19.8191C408.98 18.6801 410.961 18.1106 413.057 18.1106C415.472 18.1106 417.568 18.6801 419.345 19.8191C421.122 21.0037 422.397 22.7806 423.172 25.1498C424.584 22.9173 426.27 21.1859 428.229 19.9558C430.234 18.7256 432.352 18.1106 434.585 18.1106Z" fill="white"/>
</svg>
